<svg width="512" height="512" viewBox="0 0 512 512" fill="none" xmlns="http://www.w3.org/2000/svg">
<path d="M238.232 423.374H271.478V88.6993H238.232V423.374Z" fill="white"/>
<path d="M313.663 422.229H196.121L254.892 481L313.663 422.229Z" fill="white"/>
<path d="M314.771 89.7709H197.229L256 31L314.771 89.7709Z" fill="white"/>
<path d="M88.6261 239.414V272.659H423.301V239.414H88.6261Z" fill="white"/>
<path d="M89.7709 314.844V197.302L31 256.073L89.7709 314.844Z" fill="white"/>
<path d="M422.229 315.952V198.411L481 257.181L422.229 315.952Z" fill="white"/>
<path d="M157.945 335.387L175.511 352.952L352.337 176.126L334.771 158.561L157.945 335.387Z" fill="white"/>
<path d="M198.404 374.636L136.301 312.532V374.636H198.404Z" fill="white"/>
<path d="M374.645 199.566L312.541 137.463H374.645V199.566Z" fill="white"/>
<path d="M176.613 159.127L159.048 176.692L335.874 353.518L353.439 335.953L176.613 159.127Z" fill="white"/>
<path d="M137.364 199.586L199.468 137.482H137.364V199.586Z" fill="white"/>
<path d="M312.434 375.826L374.537 313.723V375.826L312.434 375.826Z" fill="white"/>
</svg>
