<svg width="500" height="500" viewBox="0 0 500 500" fill="none" xmlns="http://www.w3.org/2000/svg">
<rect width="500" height="500" rx="250" fill="black"/>
<path d="M234 99H264V401H234V99Z" fill="white"/>
<path d="M302.066 100.033H196L249.033 47L302.066 100.033Z" fill="white"/>
<path d="M303.066 400.033H197L250.033 453.066L303.066 400.033Z" fill="white"/>
<path d="M99 265V235H401V265H99Z" fill="white"/>
<path d="M100.033 196.934V303L47 249.967L100.033 196.934Z" fill="white"/>
<path d="M400.033 195.934V302L453.066 248.967L400.033 195.934Z" fill="white"/>
<path d="M161.552 178.397L177.402 162.546L336.965 322.109L321.114 337.959L161.552 178.397Z" fill="white"/>
<path d="M198.06 142.98L142.02 199.02V142.98H198.06Z" fill="white"/>
<path d="M357.094 300.957L301.054 356.997H357.094V300.957Z" fill="white"/>
<path d="M178.397 337.448L162.546 321.598L322.109 162.035L337.959 177.886L178.397 337.448Z" fill="white"/>
<path d="M142.98 300.94L199.02 356.98H142.98V300.94Z" fill="white"/>
<path d="M300.957 141.906L356.997 197.946V141.906L300.957 141.906Z" fill="white"/>
</svg>
