<svg width="2000" height="2000" viewBox="0 0 2000 2000" fill="none" xmlns="http://www.w3.org/2000/svg">
<rect width="2000" height="2000" rx="1000" fill="black"/>
<path fill-rule="evenodd" clip-rule="evenodd" d="M883.333 533.333L941.667 416.667L1000 300L1058.33 416.667L1116.67 533.333H1058.33V880.334L1216.82 721.847L1185.88 690.91L1278.69 659.974L1371.5 629.039L1340.56 721.846L1309.63 814.654L1278.69 783.719L1120.74 941.667H1466.67V883.333L1583.33 941.667L1700 1000L1583.33 1058.33L1466.67 1116.67V1058.33H1120.21L1278.69 1216.82L1309.63 1185.88L1340.56 1278.69L1371.5 1371.5L1278.69 1340.56L1185.89 1309.63L1216.82 1278.69L1058.33 1120.21V1466.67H1116.67L1058.33 1583.33L1000 1700L941.667 1583.33L883.334 1466.67H941.667V1120.74L783.718 1278.69L814.654 1309.63L721.846 1340.56L629.038 1371.5L690.91 1185.89L721.846 1216.82L880.334 1058.33H533.333V1116.67L416.667 1058.33L300 1000L533.333 883.333V941.667H879.795L721.846 783.718L690.91 814.654L659.974 721.846L629.038 629.038L721.846 659.974L814.654 690.91L783.718 721.846L941.667 879.795V533.333H883.333Z" fill="white"/>
</svg>
