<svg width="444" height="651" viewBox="0 0 444 651" fill="none" xmlns="http://www.w3.org/2000/svg">
<g filter="url(#filter0_d_304_3)">
<path d="M161.35 83.2832L154.965 89.6683L282.669 217.372L289.054 210.987L161.35 83.2832Z" fill="#DADADA"/>
<path d="M145.174 73.918L175.389 82.0137L153.271 104.133L145.174 73.918Z" fill="#DADADA"/>
<path d="M298.419 227.161L268.204 219.066L290.323 196.946L298.419 227.161Z" fill="#DADADA"/>
<path d="M154.283 211.251L160.668 217.636L288.371 89.933L281.986 83.5479L154.283 211.251Z" fill="#DADADA"/>
<path d="M144.918 227.428L153.013 197.213L175.133 219.332L144.918 227.428Z" fill="#DADADA"/>
<path d="M298.162 74.1836L290.066 104.399L267.947 82.2799L298.162 74.1836Z" fill="#DADADA"/>
<path d="M226.316 60.2002H217.286V240.8H226.316V60.2002Z" fill="#5DB7CB"/>
<path d="M221.5 42.1396L237.14 69.2296H205.859L221.5 42.1396Z" fill="#5DB7CB"/>
<path d="M221.5 258.86L205.859 231.77H237.14L221.5 258.86Z" fill="#5DB7CB"/>
<path d="M131.2 145.685V154.715H311.8V145.685H131.2Z" fill="#5DB7CB"/>
<path d="M113.14 150.5L140.23 134.859V166.14L113.14 150.5Z" fill="#5DB7CB"/>
<path d="M329.86 150.5L302.77 166.14V134.859L329.86 150.5Z" fill="#5DB7CB"/>
</g>
<path d="M55.1449 391C57.3116 391 59.2449 391.45 60.9449 392.35C62.6783 393.25 64.0283 394.583 64.9949 396.35C65.9949 398.117 66.4949 400.25 66.4949 402.75L66.4949 419L60.8449 419L60.8449 403.6C60.8449 401.133 60.2283 399.25 58.9949 397.95C57.7616 396.617 56.0783 395.95 53.9449 395.95C51.8116 395.95 50.1116 396.617 48.8449 397.95C47.6116 399.25 46.9949 401.133 46.9949 403.6L46.9949 419L41.3449 419L41.3449 403.6C41.3449 401.133 40.7283 399.25 39.4949 397.95C38.2616 396.617 36.5783 395.95 34.4449 395.95C32.3116 395.95 30.6116 396.617 29.3449 397.95C28.1116 399.25 27.4949 401.133 27.4949 403.6L27.4949 419L21.7949 419L21.7949 391.45L27.4949 391.45L27.4949 394.6C28.4283 393.467 29.6116 392.583 31.0449 391.95C32.4783 391.317 34.0116 391 35.6449 391C37.8449 391 39.8116 391.467 41.5449 392.4C43.2783 393.333 44.6116 394.683 45.5449 396.45C46.3783 394.783 47.6783 393.467 49.4449 392.5C51.2116 391.5 53.1116 391 55.1449 391ZM71.848 405.1C71.848 402.333 72.4147 399.883 73.548 397.75C74.7147 395.617 76.2814 393.967 78.248 392.8C80.248 391.6 82.448 391 84.848 391C87.0147 391 88.898 391.433 90.498 392.3C92.1314 393.133 93.4314 394.183 94.398 395.45L94.398 391.45L100.148 391.45L100.148 419L94.398 419L94.398 414.9C93.4314 416.2 92.1147 417.283 90.448 418.15C88.7814 419.017 86.8814 419.45 84.748 419.45C82.3814 419.45 80.2147 418.85 78.248 417.65C76.2814 416.417 74.7147 414.717 73.548 412.55C72.4147 410.35 71.848 407.867 71.848 405.1ZM94.398 405.2C94.398 403.3 93.998 401.65 93.198 400.25C92.4314 398.85 91.4147 397.783 90.148 397.05C88.8814 396.317 87.5147 395.95 86.048 395.95C84.5814 395.95 83.2147 396.317 81.948 397.05C80.6814 397.75 79.648 398.8 78.848 400.2C78.0814 401.567 77.698 403.2 77.698 405.1C77.698 407 78.0814 408.667 78.848 410.1C79.648 411.533 80.6814 412.633 81.948 413.4C83.248 414.133 84.6147 414.5 86.048 414.5C87.5147 414.5 88.8814 414.133 90.148 413.4C91.4147 412.667 92.4314 411.6 93.198 410.2C93.998 408.767 94.398 407.1 94.398 405.2ZM105.735 405.1C105.735 402.333 106.301 399.883 107.435 397.75C108.601 395.617 110.168 393.967 112.135 392.8C114.135 391.6 116.351 391 118.785 391C120.585 391 122.351 391.4 124.085 392.2C125.851 392.967 127.251 394 128.285 395.3L128.285 382L134.035 382L134.035 419L128.285 419L128.285 414.85C127.351 416.183 126.051 417.283 124.385 418.15C122.751 419.017 120.868 419.45 118.735 419.45C116.335 419.45 114.135 418.85 112.135 417.65C110.168 416.417 108.601 414.717 107.435 412.55C106.301 410.35 105.735 407.867 105.735 405.1ZM128.285 405.2C128.285 403.3 127.885 401.65 127.085 400.25C126.318 398.85 125.301 397.783 124.035 397.05C122.768 396.317 121.401 395.95 119.935 395.95C118.468 395.95 117.101 396.317 115.835 397.05C114.568 397.75 113.535 398.8 112.735 400.2C111.968 401.567 111.585 403.2 111.585 405.1C111.585 407 111.968 408.667 112.735 410.1C113.535 411.533 114.568 412.633 115.835 413.4C117.135 414.133 118.501 414.5 119.935 414.5C121.401 414.5 122.768 414.133 124.035 413.4C125.301 412.667 126.318 411.6 127.085 410.2C127.885 408.767 128.285 407.1 128.285 405.2ZM166.771 404.55C166.771 405.583 166.705 406.517 166.571 407.35L145.521 407.35C145.688 409.55 146.505 411.317 147.971 412.65C149.438 413.983 151.238 414.65 153.371 414.65C156.438 414.65 158.605 413.367 159.871 410.8L166.021 410.8C165.188 413.333 163.671 415.417 161.471 417.05C159.305 418.65 156.605 419.45 153.371 419.45C150.738 419.45 148.371 418.867 146.271 417.7C144.205 416.5 142.571 414.833 141.371 412.7C140.205 410.533 139.621 408.033 139.621 405.2C139.621 402.367 140.188 399.883 141.321 397.75C142.488 395.583 144.105 393.917 146.171 392.75C148.271 391.583 150.671 391 153.371 391C155.971 391 158.288 391.567 160.321 392.7C162.355 393.833 163.938 395.433 165.071 397.5C166.205 399.533 166.771 401.883 166.771 404.55ZM160.821 402.75C160.788 400.65 160.038 398.967 158.571 397.7C157.105 396.433 155.288 395.8 153.121 395.8C151.155 395.8 149.471 396.433 148.071 397.7C146.671 398.933 145.838 400.617 145.571 402.75L160.821 402.75Z" fill="#5DB7CB"/>
<path d="M222.369 391.45L213.819 419L207.819 419L202.269 398.65L196.719 419L190.719 419L182.119 391.45L187.919 391.45L193.669 413.6L199.519 391.45L205.469 391.45L211.069 413.5L216.769 391.45L222.369 391.45ZM229.529 387.8C228.496 387.8 227.629 387.45 226.929 386.75C226.229 386.05 225.879 385.183 225.879 384.15C225.879 383.117 226.229 382.25 226.929 381.55C227.629 380.85 228.496 380.5 229.529 380.5C230.529 380.5 231.379 380.85 232.079 381.55C232.779 382.25 233.129 383.117 233.129 384.15C233.129 385.183 232.779 386.05 232.079 386.75C231.379 387.45 230.529 387.8 229.529 387.8ZM232.329 391.45L232.329 419L226.629 419L226.629 391.45L232.329 391.45ZM246.463 396.1L246.463 411.35C246.463 412.383 246.696 413.133 247.163 413.6C247.663 414.033 248.496 414.25 249.663 414.25L253.163 414.25L253.163 419L248.663 419C246.096 419 244.129 418.4 242.763 417.2C241.396 416 240.713 414.05 240.713 411.35L240.713 396.1L237.463 396.1L237.463 391.45L240.713 391.45L240.713 384.6L246.463 384.6L246.463 391.45L253.163 391.45L253.163 396.1L246.463 396.1ZM272.666 391C274.766 391 276.633 391.45 278.266 392.35C279.933 393.25 281.233 394.583 282.166 396.35C283.133 398.117 283.616 400.25 283.616 402.75L283.616 419L277.966 419L277.966 403.6C277.966 401.133 277.349 399.25 276.116 397.95C274.883 396.617 273.199 395.95 271.066 395.95C268.933 395.95 267.233 396.617 265.966 397.95C264.733 399.25 264.116 401.133 264.116 403.6L264.116 419L258.416 419L258.416 382L264.116 382L264.116 394.65C265.083 393.483 266.299 392.583 267.766 391.95C269.266 391.317 270.899 391 272.666 391Z" fill="#DADADA"/>
<path d="M315.425 396.1L310.325 396.1L310.325 419L304.575 419L304.575 396.1L301.325 396.1L301.325 391.45L304.575 391.45L304.575 389.5C304.575 386.333 305.408 384.033 307.075 382.6C308.775 381.133 311.425 380.4 315.025 380.4L315.025 385.15C313.292 385.15 312.075 385.483 311.375 386.15C310.675 386.783 310.325 387.9 310.325 389.5L310.325 391.45L315.425 391.45L315.425 396.1ZM326.177 395.45C327.01 394.05 328.11 392.967 329.477 392.2C330.877 391.4 332.527 391 334.427 391L334.427 396.9L332.977 396.9C330.743 396.9 329.043 397.467 327.877 398.6C326.743 399.733 326.177 401.7 326.177 404.5L326.177 419L320.477 419L320.477 391.45L326.177 391.45L326.177 395.45ZM364.916 404.55C364.916 405.583 364.849 406.517 364.716 407.35L343.666 407.35C343.833 409.55 344.649 411.317 346.116 412.65C347.583 413.983 349.383 414.65 351.516 414.65C354.583 414.65 356.749 413.367 358.016 410.8L364.166 410.8C363.333 413.333 361.816 415.417 359.616 417.05C357.449 418.65 354.749 419.45 351.516 419.45C348.883 419.45 346.516 418.867 344.416 417.7C342.349 416.5 340.716 414.833 339.516 412.7C338.349 410.533 337.766 408.033 337.766 405.2C337.766 402.367 338.333 399.883 339.466 397.75C340.633 395.583 342.249 393.917 344.316 392.75C346.416 391.583 348.816 391 351.516 391C354.116 391 356.433 391.567 358.466 392.7C360.499 393.833 362.083 395.433 363.216 397.5C364.349 399.533 364.916 401.883 364.916 404.55ZM358.966 402.75C358.933 400.65 358.183 398.967 356.716 397.7C355.249 396.433 353.433 395.8 351.266 395.8C349.299 395.8 347.616 396.433 346.216 397.7C344.816 398.933 343.983 400.617 343.716 402.75L358.966 402.75ZM380.525 419.45C378.359 419.45 376.409 419.067 374.675 418.3C372.975 417.5 371.625 416.433 370.625 415.1C369.625 413.733 369.092 412.217 369.025 410.55L374.925 410.55C375.025 411.717 375.575 412.7 376.575 413.5C377.609 414.267 378.892 414.65 380.425 414.65C382.025 414.65 383.259 414.35 384.125 413.75C385.025 413.117 385.475 412.317 385.475 411.35C385.475 410.317 384.975 409.55 383.975 409.05C383.009 408.55 381.459 408 379.325 407.4C377.259 406.833 375.575 406.283 374.275 405.75C372.975 405.217 371.842 404.4 370.875 403.3C369.942 402.2 369.475 400.75 369.475 398.95C369.475 397.483 369.909 396.15 370.775 394.95C371.642 393.717 372.875 392.75 374.475 392.05C376.109 391.35 377.975 391 380.075 391C383.209 391 385.725 391.8 387.625 393.4C389.559 394.967 390.592 397.117 390.725 399.85L385.025 399.85C384.925 398.617 384.425 397.633 383.525 396.9C382.625 396.167 381.409 395.8 379.875 395.8C378.375 395.8 377.225 396.083 376.425 396.65C375.625 397.217 375.225 397.967 375.225 398.9C375.225 399.633 375.492 400.25 376.025 400.75C376.559 401.25 377.209 401.65 377.975 401.95C378.742 402.217 379.875 402.567 381.375 403C383.375 403.533 385.009 404.083 386.275 404.65C387.575 405.183 388.692 405.983 389.625 407.05C390.559 408.117 391.042 409.533 391.075 411.3C391.075 412.867 390.642 414.267 389.775 415.5C388.909 416.733 387.675 417.7 386.075 418.4C384.509 419.1 382.659 419.45 380.525 419.45ZM411.484 391C413.584 391 415.451 391.45 417.084 392.35C418.751 393.25 420.051 394.583 420.984 396.35C421.951 398.117 422.434 400.25 422.434 402.75L422.434 419L416.784 419L416.784 403.6C416.784 401.133 416.168 399.25 414.934 397.95C413.701 396.617 412.018 395.95 409.884 395.95C407.751 395.95 406.051 396.617 404.784 397.95C403.551 399.25 402.934 401.133 402.934 403.6L402.934 419L397.234 419L397.234 382L402.934 382L402.934 394.65C403.901 393.483 405.118 392.583 406.584 391.95C408.084 391.317 409.718 391 411.484 391Z" fill="#E5C76B"/>
<rect x="4" y="451" width="200" height="200" rx="15" fill="#67B0E8"/>
<path d="M135.559 572.16V581.2H120.679V628H109.479V581.2H94.5991V572.16H135.559ZM163.011 628.56C159.118 628.56 155.598 627.893 152.451 626.56C149.358 625.227 146.904 623.307 145.091 620.8C143.278 618.293 142.344 615.333 142.291 611.92H154.291C154.451 614.213 155.251 616.027 156.691 617.36C158.184 618.693 160.211 619.36 162.771 619.36C165.384 619.36 167.438 618.747 168.931 617.52C170.424 616.24 171.171 614.587 171.171 612.56C171.171 610.907 170.664 609.547 169.651 608.48C168.638 607.413 167.358 606.587 165.811 606C164.318 605.36 162.238 604.667 159.571 603.92C155.944 602.853 152.984 601.813 150.691 600.8C148.451 599.733 146.504 598.16 144.851 596.08C143.251 593.947 142.451 591.12 142.451 587.6C142.451 584.293 143.278 581.413 144.931 578.96C146.584 576.507 148.904 574.64 151.891 573.36C154.878 572.027 158.291 571.36 162.131 571.36C167.891 571.36 172.558 572.773 176.131 575.6C179.758 578.373 181.758 582.267 182.131 587.28H169.811C169.704 585.36 168.878 583.787 167.331 582.56C165.838 581.28 163.838 580.64 161.331 580.64C159.144 580.64 157.384 581.2 156.051 582.32C154.771 583.44 154.131 585.067 154.131 587.2C154.131 588.693 154.611 589.947 155.571 590.96C156.584 591.92 157.811 592.72 159.251 593.36C160.744 593.947 162.824 594.64 165.491 595.44C169.118 596.507 172.078 597.573 174.371 598.64C176.664 599.707 178.638 601.307 180.291 603.44C181.944 605.573 182.771 608.373 182.771 611.84C182.771 614.827 181.998 617.6 180.451 620.16C178.904 622.72 176.638 624.773 173.651 626.32C170.664 627.813 167.118 628.56 163.011 628.56Z" fill="#141B1E"/>
<rect x="241" y="451" width="200" height="200" rx="15" fill="#E5C76B"/>
<path d="M369.393 572.16V611.36C369.393 616.8 367.819 621.04 364.673 624.08C361.526 627.067 357.313 628.56 352.033 628.56C346.699 628.56 342.379 627.013 339.073 623.92C335.819 620.827 334.193 616.507 334.193 610.96H345.393C345.446 613.36 346.006 615.227 347.073 616.56C348.193 617.893 349.793 618.56 351.872 618.56C353.899 618.56 355.446 617.92 356.513 616.64C357.579 615.36 358.113 613.6 358.113 611.36V572.16H369.393ZM401.738 628.56C397.844 628.56 394.324 627.893 391.178 626.56C388.084 625.227 385.631 623.307 383.818 620.8C382.004 618.293 381.071 615.333 381.018 611.92H393.018C393.178 614.213 393.978 616.027 395.418 617.36C396.911 618.693 398.938 619.36 401.498 619.36C404.111 619.36 406.164 618.747 407.658 617.52C409.151 616.24 409.898 614.587 409.898 612.56C409.898 610.907 409.391 609.547 408.378 608.48C407.364 607.413 406.084 606.587 404.538 606C403.044 605.36 400.964 604.667 398.298 603.92C394.671 602.853 391.711 601.813 389.418 600.8C387.178 599.733 385.231 598.16 383.578 596.08C381.978 593.947 381.178 591.12 381.178 587.6C381.178 584.293 382.004 581.413 383.658 578.96C385.311 576.507 387.631 574.64 390.618 573.36C393.604 572.027 397.018 571.36 400.858 571.36C406.618 571.36 411.284 572.773 414.858 575.6C418.484 578.373 420.484 582.267 420.858 587.28H408.538C408.431 585.36 407.604 583.787 406.058 582.56C404.564 581.28 402.564 580.64 400.058 580.64C397.871 580.64 396.111 581.2 394.778 582.32C393.498 583.44 392.858 585.067 392.858 587.2C392.858 588.693 393.338 589.947 394.298 590.96C395.311 591.92 396.538 592.72 397.978 593.36C399.471 593.947 401.551 594.64 404.218 595.44C407.844 596.507 410.804 597.573 413.098 598.64C415.391 599.707 417.364 601.307 419.018 603.44C420.671 605.573 421.498 608.373 421.498 611.84C421.498 614.827 420.724 617.6 419.177 620.16C417.631 622.72 415.364 624.773 412.378 626.32C409.391 627.813 405.844 628.56 401.738 628.56Z" fill="#141B1E"/>
<path d="M21.0441 311.49V335.61C21.0441 337.29 21.4341 338.52 22.2141 339.3C23.0541 340.02 24.4341 340.38 26.3541 340.38H32.2041V351H24.2841C13.6641 351 8.35406 345.84 8.35406 335.52V311.49H2.41406V301.14H8.35406V288.81H21.0441V301.14H32.2041V311.49H21.0441ZM69.3466 300.42C73.1266 300.42 76.4866 301.26 79.4266 302.94C82.3666 304.56 84.6466 306.99 86.2666 310.23C87.9466 313.41 88.7866 317.25 88.7866 321.75V351H76.1866V323.46C76.1866 319.5 75.1966 316.47 73.2166 314.37C71.2366 312.21 68.5366 311.13 65.1166 311.13C61.6366 311.13 58.8766 312.21 56.8366 314.37C54.8566 316.47 53.8666 319.5 53.8666 323.46V351H41.2666V284.4H53.8666V307.35C55.4866 305.19 57.6466 303.51 60.3466 302.31C63.0466 301.05 66.0466 300.42 69.3466 300.42ZM147.119 324.99C147.119 326.79 146.999 328.41 146.759 329.85H110.309C110.609 333.45 111.869 336.27 114.089 338.31C116.309 340.35 119.039 341.37 122.279 341.37C126.959 341.37 130.289 339.36 132.269 335.34H145.859C144.419 340.14 141.659 344.1 137.579 347.22C133.499 350.28 128.489 351.81 122.549 351.81C117.749 351.81 113.429 350.76 109.589 348.66C105.809 346.5 102.839 343.47 100.679 339.57C98.5786 335.67 97.5286 331.17 97.5286 326.07C97.5286 320.91 98.5786 316.38 100.679 312.48C102.779 308.58 105.719 305.58 109.499 303.48C113.279 301.38 117.629 300.33 122.549 300.33C127.289 300.33 131.519 301.35 135.239 303.39C139.019 305.43 141.929 308.34 143.969 312.12C146.069 315.84 147.119 320.13 147.119 324.99ZM134.069 321.39C134.009 318.15 132.839 315.57 130.559 313.65C128.279 311.67 125.489 310.68 122.189 310.68C119.069 310.68 116.429 311.64 114.269 313.56C112.169 315.42 110.879 318.03 110.399 321.39H134.069Z" fill="#DADADA"/>
<path d="M190.361 308.88C191.981 306.24 194.081 304.17 196.661 302.67C199.301 301.17 202.301 300.42 205.661 300.42V313.65H202.331C198.371 313.65 195.371 314.58 193.331 316.44C191.351 318.3 190.361 321.54 190.361 326.16V351H177.761V301.14H190.361V308.88ZM260.498 324.99C260.498 326.79 260.378 328.41 260.138 329.85H223.688C223.988 333.45 225.248 336.27 227.468 338.31C229.688 340.35 232.418 341.37 235.658 341.37C240.338 341.37 243.668 339.36 245.648 335.34H259.238C257.798 340.14 255.038 344.1 250.958 347.22C246.878 350.28 241.868 351.81 235.928 351.81C231.128 351.81 226.808 350.76 222.968 348.66C219.188 346.5 216.218 343.47 214.058 339.57C211.958 335.67 210.907 331.17 210.907 326.07C210.907 320.91 211.958 316.38 214.058 312.48C216.158 308.58 219.098 305.58 222.878 303.48C226.658 301.38 231.008 300.33 235.928 300.33C240.668 300.33 244.898 301.35 248.618 303.39C252.398 305.43 255.308 308.34 257.348 312.12C259.448 315.84 260.498 320.13 260.498 324.99ZM247.448 321.39C247.388 318.15 246.218 315.57 243.938 313.65C241.658 311.67 238.868 310.68 235.568 310.68C232.448 310.68 229.808 311.64 227.648 313.56C225.548 315.42 224.258 318.03 223.778 321.39H247.448ZM266.454 325.89C266.454 320.85 267.444 316.38 269.424 312.48C271.464 308.58 274.194 305.58 277.614 303.48C281.094 301.38 284.964 300.33 289.224 300.33C292.944 300.33 296.184 301.08 298.944 302.58C301.764 304.08 304.014 305.97 305.694 308.25V301.14H318.384V351H305.694V343.71C304.074 346.05 301.824 348 298.944 349.56C296.124 351.06 292.854 351.81 289.134 351.81C284.934 351.81 281.094 350.73 277.614 348.57C274.194 346.41 271.464 343.38 269.424 339.48C267.444 335.52 266.454 330.99 266.454 325.89ZM305.694 326.07C305.694 323.01 305.094 320.4 303.894 318.24C302.694 316.02 301.074 314.34 299.034 313.2C296.994 312 294.804 311.4 292.464 311.4C290.124 311.4 287.964 311.97 285.984 313.11C284.004 314.25 282.384 315.93 281.124 318.15C279.924 320.31 279.324 322.89 279.324 325.89C279.324 328.89 279.924 331.53 281.124 333.81C282.384 336.03 284.004 337.74 285.984 338.94C288.024 340.14 290.184 340.74 292.464 340.74C294.804 340.74 296.994 340.17 299.034 339.03C301.074 337.83 302.694 336.15 303.894 333.99C305.094 331.77 305.694 329.13 305.694 326.07ZM343.29 284.4V351H330.69V284.4H343.29ZM417.659 300.42C423.779 300.42 428.699 302.31 432.419 306.09C436.199 309.81 438.089 315.03 438.089 321.75V351H425.489V323.46C425.489 319.56 424.499 316.59 422.519 314.55C420.539 312.45 417.839 311.4 414.419 311.4C410.999 311.4 408.269 312.45 406.229 314.55C404.249 316.59 403.259 319.56 403.259 323.46V351H390.659V323.46C390.659 319.56 389.669 316.59 387.689 314.55C385.709 312.45 383.009 311.4 379.589 311.4C376.109 311.4 373.349 312.45 371.309 314.55C369.329 316.59 368.339 319.56 368.339 323.46V351H355.739V301.14H368.339V307.17C369.959 305.07 372.029 303.42 374.549 302.22C377.129 301.02 379.949 300.42 383.009 300.42C386.909 300.42 390.389 301.26 393.449 302.94C396.509 304.56 398.879 306.9 400.559 309.96C402.179 307.08 404.519 304.77 407.579 303.03C410.699 301.29 414.059 300.42 417.659 300.42Z" fill="#5DB7CB"/>
<defs>
<filter id="filter0_d_304_3" x="31" y="-40" width="381" height="381" filterUnits="userSpaceOnUse" color-interpolation-filters="sRGB">
<feFlood flood-opacity="0" result="BackgroundImageFix"/>
<feColorMatrix in="SourceAlpha" type="matrix" values="0 0 0 0 0 0 0 0 0 0 0 0 0 0 0 0 0 0 127 0" result="hardAlpha"/>
<feOffset/>
<feGaussianBlur stdDeviation="20"/>
<feColorMatrix type="matrix" values="0 0 0 0 0.364706 0 0 0 0 0.717647 0 0 0 0 0.796078 0 0 0 0.7 0"/>
<feBlend mode="normal" in2="BackgroundImageFix" result="effect1_dropShadow_304_3"/>
<feBlend mode="normal" in="SourceGraphic" in2="effect1_dropShadow_304_3" result="shape"/>
</filter>
</defs>
</svg>
