<svg width="575" height="400" viewBox="0 0 575 400" fill="none" xmlns="http://www.w3.org/2000/svg">
<g clip-path="url(#clip0_304_27)">
<rect width="575" height="400" rx="55" fill="#141B1E"/>
<g filter="url(#filter0_d_304_27)">
<path d="M227.35 79.2832L220.965 85.6683L348.669 213.372L355.054 206.987L227.35 79.2832Z" fill="#DADADA"/>
<path d="M211.174 69.918L241.389 78.0137L219.271 100.133L211.174 69.918Z" fill="#DADADA"/>
<path d="M364.419 223.161L334.204 215.066L356.323 192.946L364.419 223.161Z" fill="#DADADA"/>
<path d="M220.283 207.251L226.668 213.636L354.371 85.933L347.986 79.5479L220.283 207.251Z" fill="#DADADA"/>
<path d="M210.918 223.428L219.013 193.213L241.133 215.332L210.918 223.428Z" fill="#DADADA"/>
<path d="M364.162 70.1836L356.066 100.399L333.947 78.2799L364.162 70.1836Z" fill="#DADADA"/>
<path d="M292.316 56.2002H283.286V236.8H292.316V56.2002Z" fill="#5DB7CB"/>
<path d="M287.5 38.1396L303.14 65.2296H271.859L287.5 38.1396Z" fill="#5DB7CB"/>
<path d="M287.5 254.86L271.859 227.77H303.14L287.5 254.86Z" fill="#5DB7CB"/>
<path d="M197.2 141.685V150.715H377.8V141.685H197.2Z" fill="#5DB7CB"/>
<path d="M179.14 146.5L206.23 130.859V162.14L179.14 146.5Z" fill="#5DB7CB"/>
<path d="M395.86 146.5L368.77 162.14V130.859L395.86 146.5Z" fill="#5DB7CB"/>
</g>
<path d="M87.0441 307.49V331.61C87.0441 333.29 87.4341 334.52 88.2141 335.3C89.0541 336.02 90.4341 336.38 92.3541 336.38H98.2041V347H90.2841C79.6641 347 74.3541 341.84 74.3541 331.52V307.49H68.4141V297.14H74.3541V284.81H87.0441V297.14H98.2041V307.49H87.0441ZM135.347 296.42C139.127 296.42 142.487 297.26 145.427 298.94C148.367 300.56 150.647 302.99 152.267 306.23C153.947 309.41 154.787 313.25 154.787 317.75V347H142.187V319.46C142.187 315.5 141.197 312.47 139.217 310.37C137.237 308.21 134.537 307.13 131.117 307.13C127.637 307.13 124.877 308.21 122.837 310.37C120.857 312.47 119.867 315.5 119.867 319.46V347H107.267V280.4H119.867V303.35C121.487 301.19 123.647 299.51 126.347 298.31C129.047 297.05 132.047 296.42 135.347 296.42ZM213.119 320.99C213.119 322.79 212.999 324.41 212.759 325.85H176.309C176.609 329.45 177.869 332.27 180.089 334.31C182.309 336.35 185.039 337.37 188.279 337.37C192.959 337.37 196.289 335.36 198.269 331.34H211.859C210.419 336.14 207.659 340.1 203.579 343.22C199.499 346.28 194.489 347.81 188.549 347.81C183.749 347.81 179.429 346.76 175.589 344.66C171.809 342.5 168.839 339.47 166.679 335.57C164.579 331.67 163.529 327.17 163.529 322.07C163.529 316.91 164.579 312.38 166.679 308.48C168.779 304.58 171.719 301.58 175.499 299.48C179.279 297.38 183.629 296.33 188.549 296.33C193.289 296.33 197.519 297.35 201.239 299.39C205.019 301.43 207.929 304.34 209.969 308.12C212.069 311.84 213.119 316.13 213.119 320.99ZM200.069 317.39C200.009 314.15 198.839 311.57 196.559 309.65C194.279 307.67 191.489 306.68 188.189 306.68C185.069 306.68 182.429 307.64 180.269 309.56C178.169 311.42 176.879 314.03 176.399 317.39H200.069Z" fill="#DADADA"/>
<path d="M256.361 304.88C257.981 302.24 260.081 300.17 262.661 298.67C265.301 297.17 268.301 296.42 271.661 296.42V309.65H268.331C264.371 309.65 261.371 310.58 259.331 312.44C257.351 314.3 256.361 317.54 256.361 322.16V347H243.761V297.14H256.361V304.88ZM326.498 320.99C326.498 322.79 326.378 324.41 326.138 325.85H289.688C289.988 329.45 291.248 332.27 293.468 334.31C295.688 336.35 298.418 337.37 301.658 337.37C306.338 337.37 309.668 335.36 311.648 331.34H325.238C323.798 336.14 321.038 340.1 316.958 343.22C312.878 346.28 307.868 347.81 301.928 347.81C297.128 347.81 292.808 346.76 288.968 344.66C285.188 342.5 282.218 339.47 280.058 335.57C277.958 331.67 276.907 327.17 276.907 322.07C276.907 316.91 277.958 312.38 280.058 308.48C282.158 304.58 285.098 301.58 288.878 299.48C292.658 297.38 297.008 296.33 301.928 296.33C306.668 296.33 310.898 297.35 314.618 299.39C318.398 301.43 321.308 304.34 323.348 308.12C325.448 311.84 326.498 316.13 326.498 320.99ZM313.448 317.39C313.388 314.15 312.218 311.57 309.938 309.65C307.658 307.67 304.868 306.68 301.568 306.68C298.448 306.68 295.808 307.64 293.648 309.56C291.548 311.42 290.258 314.03 289.778 317.39H313.448ZM332.454 321.89C332.454 316.85 333.444 312.38 335.424 308.48C337.464 304.58 340.194 301.58 343.614 299.48C347.094 297.38 350.964 296.33 355.224 296.33C358.944 296.33 362.184 297.08 364.944 298.58C367.764 300.08 370.014 301.97 371.694 304.25V297.14H384.384V347H371.694V339.71C370.074 342.05 367.824 344 364.944 345.56C362.124 347.06 358.854 347.81 355.134 347.81C350.934 347.81 347.094 346.73 343.614 344.57C340.194 342.41 337.464 339.38 335.424 335.48C333.444 331.52 332.454 326.99 332.454 321.89ZM371.694 322.07C371.694 319.01 371.094 316.4 369.894 314.24C368.694 312.02 367.074 310.34 365.034 309.2C362.994 308 360.804 307.4 358.464 307.4C356.124 307.4 353.964 307.97 351.984 309.11C350.004 310.25 348.384 311.93 347.124 314.15C345.924 316.31 345.324 318.89 345.324 321.89C345.324 324.89 345.924 327.53 347.124 329.81C348.384 332.03 350.004 333.74 351.984 334.94C354.024 336.14 356.184 336.74 358.464 336.74C360.804 336.74 362.994 336.17 365.034 335.03C367.074 333.83 368.694 332.15 369.894 329.99C371.094 327.77 371.694 325.13 371.694 322.07ZM409.29 280.4V347H396.69V280.4H409.29ZM483.659 296.42C489.779 296.42 494.699 298.31 498.419 302.09C502.199 305.81 504.089 311.03 504.089 317.75V347H491.489V319.46C491.489 315.56 490.499 312.59 488.519 310.55C486.539 308.45 483.839 307.4 480.419 307.4C476.999 307.4 474.269 308.45 472.229 310.55C470.249 312.59 469.259 315.56 469.259 319.46V347H456.659V319.46C456.659 315.56 455.669 312.59 453.689 310.55C451.709 308.45 449.009 307.4 445.589 307.4C442.109 307.4 439.349 308.45 437.309 310.55C435.329 312.59 434.339 315.56 434.339 319.46V347H421.739V297.14H434.339V303.17C435.959 301.07 438.029 299.42 440.549 298.22C443.129 297.02 445.949 296.42 449.009 296.42C452.909 296.42 456.389 297.26 459.449 298.94C462.509 300.56 464.879 302.9 466.559 305.96C468.179 303.08 470.519 300.77 473.579 299.03C476.699 297.29 480.059 296.42 483.659 296.42Z" fill="#5DB7CB"/>
</g>
<defs>
<filter id="filter0_d_304_27" x="97" y="-44" width="381" height="381" filterUnits="userSpaceOnUse" color-interpolation-filters="sRGB">
<feFlood flood-opacity="0" result="BackgroundImageFix"/>
<feColorMatrix in="SourceAlpha" type="matrix" values="0 0 0 0 0 0 0 0 0 0 0 0 0 0 0 0 0 0 127 0" result="hardAlpha"/>
<feOffset/>
<feGaussianBlur stdDeviation="20"/>
<feColorMatrix type="matrix" values="0 0 0 0 0.364706 0 0 0 0 0.717647 0 0 0 0 0.796078 0 0 0 0.7 0"/>
<feBlend mode="normal" in2="BackgroundImageFix" result="effect1_dropShadow_304_27"/>
<feBlend mode="normal" in="SourceGraphic" in2="effect1_dropShadow_304_27" result="shape"/>
</filter>
<clipPath id="clip0_304_27">
<rect width="575" height="400" rx="55" fill="white"/>
</clipPath>
</defs>
</svg>
